<?xml version="1.0" encoding="UTF-8"?>
<svg id="Layer_10" data-name="Layer 10" xmlns="http://www.w3.org/2000/svg" width="720" height="720" viewBox="0 0 720 720">
  <defs>
    <style>
      .cls-1 {
        fill: #b2dece;
      }

      .cls-2 {
        fill: #80d1e2;
      }

      .cls-3 {
        fill: #51c9f2;
      }

      .cls-4 {
        fill: #1984cd;
      }

      .cls-5 {
        fill: #f4c569;
      }

      .cls-6 {
        fill: #e5d6b4;
      }

      .cls-7 {
        fill: #75d0ee;
      }

      .cls-8 {
        fill: #81d2e7;
      }
    </style>
  </defs>
  <path class="cls-2" d="M128.94,233.7s47.13,24.25,84.98,51.05c12.09-23.46,29.72-43.59,51.17-58.67l-17.17-11.81H30.72c-2.23,5.02-4.34,10.1-6.34,15.24,82.61-3.21,104.56,4.18,104.56,4.18Z"/>
  <path class="cls-4" d="M157,524.71h62.4c-7.77-2.28-21.77-14.28-27.67-19.61h-34.73v19.61Z"/>
  <path class="cls-6" d="M263.8,452.94l-13.17,13.17c26.37,27.14,62.71,44.53,103.12,46.26v-18.64c-35.26-1.72-66.94-17.03-89.94-40.79Z"/>
  <path class="cls-8" d="M455.71,384.36l41.09,25.9c7.57-13.59,11.99-27.96,13.35-41.46h-51.71c-.5,5.32-1.41,10.52-2.73,15.57Z"/>
  <path class="cls-6" d="M426.58,256.45l-12.16,15.95c29.08,18.08,48.46,50.31,48.46,87.07,0,1.79-.05,3.56-.14,5.32h19.98c.08-1.77.12-3.54.12-5.32,0-43.24-22.41-81.24-56.26-103.03Z"/>
  <path class="cls-6" d="M384.37,259.85l10.35-17.92c-4.25-1.24-8.59-2.25-13.02-3.03v20.36c.89.19,1.79.37,2.67.58Z"/>
  <path class="cls-1" d="M460.07,364.8c.09-1.76.14-3.54.14-5.32,0-35.9-18.96-67.37-47.41-84.95l-3.86,5.06c27.52,16.28,45.95,45.96,45.95,79.9,0,1.79-.06,3.56-.16,5.32h5.34Z"/>
  <path class="cls-6" d="M474.88,402.97l-23.79-16.96c-7.95,27.21-27.78,49.34-53.52,60.36l17.61,22.63c27.3-13.68,48.77-37.26,59.71-66.03Z"/>
  <path class="cls-7" d="M391.88,448.58l2.9,28.44c6.03-1.76,11.86-3.97,17.46-6.59l-17.75-22.82c-.87.34-1.73.66-2.61.97Z"/>
  <path class="cls-6" d="M388.74,449.64c-8.95,2.81-18.47,4.33-28.34,4.33-.89,0-1.77-.04-2.66-.07v27.98c.89.02,1.77.03,2.66.03,10.79,0,21.25-1.4,31.22-4.02l-2.88-28.26Z"/>
  <path class="cls-6" d="M209.4,384.39c4.92,30.01,18.54,57.1,38.22,78.55l13.18-13.18c-16.89-18.62-28.6-42-32.94-67.88-5.86.86-12.05,1.68-18.47,2.51Z"/>
  <path class="cls-6" d="M360.4,225.06c41.04,0,77.78,18.4,102.43,47.39l14.7-11.47c-28.07-33.35-70.13-54.56-117.14-54.56-74.63,0-136.76,53.42-150.3,124.1,6.4.87,12.58,1.78,18.44,2.75,12.19-61.7,66.59-108.22,131.86-108.22Z"/>
  <path class="cls-1" d="M275.44,434.27c-13.65-15.49-23.11-34.74-26.67-55.99-2.88.61-5.91,1.18-9.07,1.73,3.9,23.11,14.27,44.03,29.19,60.81l6.54-6.54Z"/>
  <path class="cls-1" d="M360.4,264.99c16.59,0,32.18,4.29,45.73,11.8l11.38-15.06,5.64-7.39c-8.02-4.8-16.64-8.71-25.72-11.59-6.42,10.26-11.75,20.91-11.75,20.91l-6.65-1.33s0-21.29-.27-23.92c-5.99-.9-12.12-1.37-18.36-1.37-59.39,0-108.89,42.28-120.06,98.38,3.15.62,6.16,1.27,9.04,1.95,10.01-50.11,53.35-88.36,105.71-91.02v18.79c1.76-.1,3.54-.16,5.32-.16Z"/>
  <path class="cls-7" d="M353.75,481.74v-36.03c-41.43-3.16-74.68-35.47-79.29-76.47-5.34,3.58-13.23,6.26-22.98,8.46,3.72,22.44,14.19,42.59,29.28,58.29l-8.48,8.48c20.83,21.6,49.52,35.56,81.47,37.27Z"/>
  <path class="cls-7" d="M252.06,338.03c9.7,2.43,17.56,5.21,22.81,8.49,5.81-38.59,37.11-68.8,76.21-72.99v-24.06c-49.45,4.14-89.62,40.81-99.02,88.57Z"/>
  <path class="cls-3" d="M209.56,293.93l-40.13-22.18s-12.16,24.32-15.48,51.95l44.81,5.21c2.29-12.2,5.94-23.91,10.79-34.99Z"/>
  <path class="cls-2" d="M157.15,408.24s2.33,22.69,18.06,50.3c12.51-7.24,32.66-19.56,39.45-23.72-6.21-11.76-11.01-24.37-14.19-37.61l-43.32,11.03Z"/>
  <path class="cls-2" d="M197.06,336.97c-15.24-1.69-31.06-2.87-45.32-3.69v49.94c14.31-1.27,30.15-2.93,45.32-5.04v-41.21Z"/>
  <path class="cls-3" d="M141.79,332.87c-24.06-1.23-42.01-1.42-42.01-1.42v55.27s18-.84,42.01-2.83v-51.02Z"/>
  <path class="cls-3" d="M90.25,386.72v-55.27s-9.95-.47-22.11,1.74v53.06c12.66,1.23,22.11.47,22.11.47Z"/>
  <path class="cls-3" d="M23.93,378.51c19.9,5.09,35.37,6.63,35.37,6.63v-50.85s-15.48.52-35.37,5.53c0,0-23.21,5.53-23.21,18.79s23.21,19.9,23.21,19.9Z"/>
  <path class="cls-5" d="M267.01,442.7c-15.31-17.16-25.93-38.58-29.93-62.25-2.14.35-4.34.7-6.58,1.03,4.22,25.09,15.52,47.78,31.79,65.93l4.71-4.71Z"/>
  <path class="cls-5" d="M455.48,278.18l5.25-4.09c-24.17-28.37-60.14-46.36-100.33-46.36-63.95,0-117.25,45.57-129.23,106.01,2.24.39,4.42.78,6.55,1.18,11.41-57.33,61.99-100.54,122.67-100.54,38.05,0,72.14,17,95.08,43.81Z"/>
  <path class="cls-2" d="M209.22,377.11c33.81-4.57,61.9-6.6,61.9-20.24,0-10.26-28.64-15.14-61.9-19.02v39.26Z"/>
  <path class="cls-2" d="M248.75,468l-22.59,22.59c32.63,33.41,77.62,54.68,127.59,56.42v-31.96c-41.14-1.73-78.15-19.42-105-47.04Z"/>
</svg>