<?xml version="1.0" encoding="UTF-8"?>
<svg xmlns="http://www.w3.org/2000/svg" width="513" height="620" viewBox="0 0 513 620">
  <defs>
    <style>
      .cls-1 {
        fill: #36a9d4;
      }

      .cls-2 {
        fill: blue;
        opacity: 0;
      }

      .cls-3 {
        fill: #8dd5e2;
      }
    </style>
  </defs>
  <g id="Layer_7" data-name="Layer 7">
    <path class="cls-3" d="M332.41,409.47c-21.53,24.3-46.64,48.78-74.83,71.76l17.54,139.12h165.71l-108.42-210.88Z"/>
    <path class="cls-3" d="M256.45,472.38c24.83-20.43,49.53-44.04,72.28-70.02l-36.23-71.36c-15.03,17.83-31.65,36.28-47,53l10.95,88.38Z"/>
    <path class="cls-1" d="M329.33,285.93s-.04.05-.05.08c-10.37,13.39-21,26.55-31.77,39.46l37.93,71.46c16.8-19.67,32.41-40.63,46.11-62.57l-52.22-48.43Z"/>
    <path class="cls-1" d="M268.74,620.35l-16.42-134.88-11.82-95.47c-22.49,24.31-45.03,46.96-66.9,68.35l-12.72,77.67-13.57,84.33h121.43Z"/>
    <path class="cls-3" d="M30.74,584.47c4.11-.81,58-11.8,123.47-45.01l12.12-74.03c-53.35,51.66-102.13,91.69-135.59,119.04Z"/>
    <path class="cls-3" d="M412.97,273.78l-58.7-27.13c-7.91,16.29-16.61,28.34-21.43,34.68l51.8,48.03c10.9-17.96,20.48-36.54,28.33-55.57Z"/>
    <path class="cls-1" d="M415.52,267.42c.25-.63.51-1.26.76-1.89,7.11-18.54,13.16-41.22,16.05-64.86l-62.26-5.16c-2.27,16.92-7.25,32.16-13,45.12l58.45,26.79Z"/>
    <path class="cls-3" d="M152.45,550.19c-42,21.4-87.74,37.78-136.3,46.09-19.42,15.56-30.88,24.07-30.88,24.07h155.97l11.2-70.15Z"/>
    <path class="cls-3" d="M438.55,131.24c.78,3.5,5.66,27.56,2.17,64.02l72.67,6.08v-87.44l-74.84,17.34Z"/>
    <path class="cls-1" d="M387.28,339.67c-3.74,5.9-7.71,11.89-11.95,17.99-10.44,15.03-22.55,30.66-36.19,46.41l111.53,216.28h62.72v-163.89l-126.12-116.79Z"/>
    <path class="cls-3" d="M513.39,319.56l-93.26-42.59c-7.43,18.16-17.15,37.34-29.72,57.7l122.99,113.87v-128.99Z"/>
    <path class="cls-1" d="M440.08,201.33c-2.52,21.37-7.82,44.33-17.42,69.25l90.73,41.09v-104.24l-73.32-6.1Z"/>
    <path class="cls-3" d="M432.99,194.59c2.02-20.61,1.51-41.74-2.91-61.35l-61.65,14.22c.03.13.05.26.07.38,2.98,14.59,3.45,28.53,2.24,41.57l62.24,5.19Z"/>
  </g>
  <g id="Layer_20" data-name="Layer 20">
    <path class="cls-3" d="M261.5,42c71,14,100.14,76.94,105.46,98.67l146.44-34.6V1.13H162.1l-29,20.47,36.4,27.4c51-17,92-7,92-7Z"/>
  </g>
  <g id="CUADRADO">
    <rect class="cls-2" x="56.5" y="15" width="342" height="342"/>
  </g>
</svg>