<?xml version="1.0" encoding="UTF-8"?>
<svg xmlns="http://www.w3.org/2000/svg" width="513" height="620" xmlns:xlink="http://www.w3.org/1999/xlink" viewBox="0 0 513 620">
  <defs>
    <style>
      .cls-1 {
        fill: #ffc4aa;
      }

      .cls-2 {
        fill: #5ce9ff;
      }

      .cls-3 {
        fill: #293c6c;
      }

      .cls-4 {
        fill: blue;
        opacity: 0;
      }

      .cls-5 {
        fill: #48c9ff;
      }

      .cls-6 {
        fill: url(#radial-gradient);
      }

      .cls-7 {
        fill: url(#radial-gradient-2);
      }
    </style>
    <radialGradient id="radial-gradient" cx="48.5" cy="438" fx="48.5" fy="438" r="37.62" gradientTransform="translate(273.3 663.57) rotate(143.86) scale(1 .72)" gradientUnits="userSpaceOnUse">
      <stop offset=".03" stop-color="#fff"/>
      <stop offset=".63" stop-color="#0473b6"/>
      <stop offset=".66" stop-color="#0071b5"/>
      <stop offset=".83" stop-color="#0071b5"/>
      <stop offset="1" stop-color="#0077b9"/>
    </radialGradient>
    <radialGradient id="radial-gradient-2" cy="488" fy="488" gradientTransform="translate(294.49 742.59) rotate(143.86) scale(1 .72)" xlink:href="#radial-gradient"/>
  </defs>
  <g id="Layer_13" data-name="Layer 13">
    <polygon class="cls-3" points="0 1.13 53.93 1.13 108 42.5 0 42.5 0 1.13"/>
    <path class="cls-1" d="M0,344.36v39.57s62.65.06,62.1-19.79c-.6-21.15-62.1-19.79-62.1-19.79Z"/>
    <ellipse class="cls-6" cx="48.5" cy="438" rx="41" ry="20"/>
    <ellipse class="cls-7" cx="48.5" cy="488" rx="41" ry="20"/>
    <path class="cls-5" d="M71.27,418h37.57s42.64,3,42.64,20-40.85,20-40.85,20h-39.36s28.04-8,28.23-20-28.23-20-28.23-20Z"/>
    <path class="cls-2" d="M71.27,468h8.57s42.64,3,42.64,20-40.85,20-40.85,20h-10.36s28.04-8,28.23-20-28.23-20-28.23-20Z"/>
  </g>
  <g id="CUADRADO">
    <rect class="cls-4" x="56.5" y="15" width="342" height="342"/>
  </g>
</svg>