<?xml version="1.0" encoding="UTF-8"?>
<svg xmlns="http://www.w3.org/2000/svg" width="513" height="600" viewBox="0 0 513 600">
  <defs>
    <style>
      .cls-1 {
        fill: #36a9d4;
      }

      .cls-2 {
        fill: #8dd5e2;
      }
    </style>
  </defs>
  <g id="Layer_7" data-name="Layer 7">
    <path class="cls-2" d="M337.63,396.05c-20.91,23.6-45.29,47.37-72.67,69.69l17.03,135.11h160.93l-105.3-204.8Z"/>
    <path class="cls-2" d="M263.86,457.16c24.11-19.84,48.1-42.77,70.19-68l-35.18-69.3c-14.59,17.32-30.74,35.23-45.65,51.47l10.64,85.84Z"/>
    <path class="cls-1" d="M334.63,276.08s-.04.05-.05.07c-10.08,13-20.39,25.78-30.86,38.32l36.84,69.4c16.31-19.1,31.48-39.46,44.78-60.76l-50.71-47.03Z"/>
    <path class="cls-1" d="M275.79,600.85l-15.95-130.99-11.48-92.72c-21.84,23.61-43.73,45.61-64.97,66.38l-12.36,75.43-13.17,81.9h117.93Z"/>
    <path class="cls-2" d="M44.66,566.01c3.99-.79,56.32-11.46,119.91-43.71l11.77-71.9c-51.81,50.17-99.19,89.04-131.68,115.61Z"/>
    <path class="cls-2" d="M415.87,264.27l-57.01-26.35c-7.69,15.82-16.13,27.52-20.81,33.68l50.31,46.65c10.59-17.44,19.89-35.49,27.51-53.97Z"/>
    <path class="cls-1" d="M418.34,258.1c.24-.61.5-1.22.73-1.83,6.9-18.01,12.78-40.03,15.59-62.99l-60.47-5.01c-2.21,16.43-7.05,31.24-12.62,43.82l56.77,26.02Z"/>
    <path class="cls-2" d="M162.86,532.72c-40.79,20.79-85.21,36.69-132.37,44.76-18.86,15.11-29.99,23.38-29.99,23.38h151.48l10.88-68.13Z"/>
    <path class="cls-2" d="M440.71,125.84c.75,3.4,5.5,26.77,2.11,62.17l70.58,5.9v-84.92l-72.68,16.84Z"/>
    <path class="cls-1" d="M390.91,328.26c-3.63,5.73-7.49,11.55-11.6,17.47-10.14,14.6-21.9,29.77-35.14,45.08l108.31,210.05h60.92v-159.16l-122.48-113.43Z"/>
    <path class="cls-2" d="M513.39,308.74l-90.58-41.36c-7.22,17.63-16.65,36.27-28.87,56.04l119.44,110.59v-125.27Z"/>
    <path class="cls-1" d="M442.19,193.92c-2.44,20.76-7.59,43.05-16.91,67.25l88.12,39.9v-101.24l-71.2-5.92Z"/>
    <path class="cls-2" d="M435.31,187.37c1.96-20.01,1.46-40.53-2.82-59.58l-59.87,13.81c.03.13.05.26.07.37,2.9,14.17,3.35,27.71,2.18,40.37l60.44,5.04Z"/>
  </g>
  <g id="Layer_20" data-name="Layer 20">
    <path class="cls-2" d="M268.76,39.18c68.95,13.6,97.25,74.72,102.42,95.82l142.22-33.6V-.51H172.23l-28.16,19.88,35.35,26.61c49.53-16.51,89.35-6.8,89.35-6.8Z"/>
  </g>
</svg>